<svg width="42" height="46" viewBox="0 0 42 46" fill="none" xmlns="http://www.w3.org/2000/svg">
<path d="M30.7501 19.6895L29.7804 18.7197L28.7198 19.7802L30.2198 21.2802C30.3605 21.4208 30.5512 21.4998 30.7501 21.4998C30.949 21.4998 31.1397 21.4208 31.2804 21.2802L34.2804 18.2802L33.2199 17.2197L30.7501 19.6895Z" fill="#2D66EE"/>
<path d="M30.7501 25.6895L29.7804 24.7197L28.7198 25.7802L30.2198 27.2802C30.3605 27.4208 30.5512 27.4998 30.7501 27.4998C30.949 27.4998 31.1397 27.4208 31.2804 27.2802L34.2804 24.2802L33.2199 23.2197L30.7501 25.6895Z" fill="#2D66EE"/>
<path d="M30.7501 32.4395L29.7804 31.4697L28.7198 32.5302L30.2198 34.0302C30.3605 34.1708 30.5512 34.2498 30.7501 34.2498C30.949 34.2498 31.1397 34.1708 31.2804 34.0302L34.2804 31.0302L33.2199 29.9697L30.7501 32.4395Z" fill="#2D66EE"/>
<path d="M39.75 14.75H34.5V7.25C34.4982 6.65381 34.2606 6.08255 33.839 5.66098C33.4175 5.2394 32.8462 5.00178 32.25 5H24.75V4.25C24.7482 3.65381 24.5106 3.08255 24.089 2.66098C23.6675 2.23941 23.0962 2.00178 22.5 2H21V1.25C21 1.05109 20.921 0.860322 20.7803 0.71967C20.6397 0.579018 20.4489 0.5 20.25 0.5H14.25C14.0511 0.5 13.8603 0.579018 13.7197 0.71967C13.579 0.860322 13.5 1.05109 13.5 1.25V2H12C11.4038 2.00178 10.8325 2.23941 10.411 2.66098C9.9894 3.08255 9.75178 3.65381 9.75 4.25V5H2.25C1.65381 5.00178 1.08255 5.2394 0.660977 5.66098C0.239405 6.08255 0.00178057 6.65381 0 7.25V43.25C0.00178057 43.8462 0.239405 44.4175 0.660977 44.839C1.08255 45.2606 1.65381 45.4982 2.25 45.5H32.25C32.8462 45.4982 33.4175 45.2606 33.839 44.839C34.2606 44.4175 34.4982 43.8462 34.5 43.25V37.25H39.75C40.3462 37.2482 40.9175 37.0106 41.339 36.589C41.7606 36.1675 41.9982 35.5962 42 35V17C41.9982 16.4038 41.7606 15.8325 41.339 15.411C40.9175 14.9894 40.3462 14.7518 39.75 14.75ZM21 3.5H22.5C22.6989 3.5 22.8897 3.57902 23.0303 3.71967C23.171 3.86032 23.25 4.05109 23.25 4.25V5H21V3.5ZM21 6.5H32.25C32.4489 6.5 32.6397 6.57902 32.7803 6.71967C32.921 6.86032 33 7.05109 33 7.25V14.75H32.25V8C32.25 7.80109 32.171 7.61032 32.0303 7.46967C31.8897 7.32902 31.6989 7.25 31.5 7.25H21V6.5ZM15 2H19.5V8C19.5 8.19891 19.421 8.38968 19.2803 8.53033C19.1397 8.67098 18.9489 8.75 18.75 8.75H15.75C15.5511 8.75 15.3603 8.67098 15.2197 8.53033C15.079 8.38968 15 8.19891 15 8V2ZM13.635 8.75C13.7907 9.18706 14.0772 9.56554 14.4557 9.83393C14.8341 10.1023 15.2861 10.2476 15.75 10.25H18.75C19.2139 10.2476 19.6659 10.1023 20.0443 9.83393C20.4228 9.56554 20.7093 9.18706 20.865 8.75H30.75V14.75H27.75C27.1538 14.7518 26.5825 14.9894 26.161 15.411C25.7394 15.8325 25.5018 16.4038 25.5 17V35C25.5018 35.5962 25.7394 36.1675 26.161 36.589C26.5825 37.0106 27.1538 37.2482 27.75 37.25H30.75V41.75H3.75V8.75H13.635ZM11.25 4.25C11.25 4.05109 11.329 3.86032 11.4697 3.71967C11.6103 3.57902 11.8011 3.5 12 3.5H13.5V5H11.25V4.25ZM33 43.25C33 43.4489 32.921 43.6397 32.7803 43.7803C32.6397 43.921 32.4489 44 32.25 44H2.25C2.05109 44 1.86032 43.921 1.71967 43.7803C1.57902 43.6397 1.5 43.4489 1.5 43.25V7.25C1.5 7.05109 1.57902 6.86032 1.71967 6.71967C1.86032 6.57902 2.05109 6.5 2.25 6.5H13.5V7.25H3C2.80109 7.25 2.61032 7.32902 2.46967 7.46967C2.32902 7.61032 2.25 7.80109 2.25 8V42.5C2.25 42.6989 2.32902 42.8897 2.46967 43.0303C2.61032 43.171 2.80109 43.25 3 43.25H31.5C31.6989 43.25 31.8897 43.171 32.0303 43.0303C32.171 42.8897 32.25 42.6989 32.25 42.5V37.25H33V43.25ZM40.5 35C40.5 35.1989 40.421 35.3897 40.2803 35.5303C40.1397 35.671 39.9489 35.75 39.75 35.75H27.75C27.5511 35.75 27.3603 35.671 27.2197 35.5303C27.079 35.3897 27 35.1989 27 35V17C27 16.8011 27.079 16.6103 27.2197 16.4697C27.3603 16.329 27.5511 16.25 27.75 16.25H39.75C39.9489 16.25 40.1397 16.329 40.2803 16.4697C40.421 16.6103 40.5 16.8011 40.5 17V35Z" fill="#2D66EE"/>
<path d="M34.5 19.25H39V20.75H34.5V19.25Z" fill="#2D66EE"/>
<path d="M34.5 25.25H39V26.75H34.5V25.25Z" fill="#2D66EE"/>
<path d="M34.5 32H39V33.5H34.5V32Z" fill="#2D66EE"/>
<path d="M16.5 16.25H21C21.1989 16.25 21.3897 16.171 21.5303 16.0303C21.671 15.8897 21.75 15.6989 21.75 15.5V14.75H24V13.25H21.75V12.5C21.75 12.3011 21.671 12.1103 21.5303 11.9697C21.3897 11.829 21.1989 11.75 21 11.75H16.5C16.3011 11.75 16.1103 11.829 15.9697 11.9697C15.829 12.1103 15.75 12.3011 15.75 12.5V13.25H11.25V12.5C11.25 12.3011 11.171 12.1103 11.0303 11.9697C10.8897 11.829 10.6989 11.75 10.5 11.75H6C5.80109 11.75 5.61032 11.829 5.46967 11.9697C5.32902 12.1103 5.25 12.3011 5.25 12.5V15.5C5.25 15.6989 5.32902 15.8897 5.46967 16.0303C5.61032 16.171 5.80109 16.25 6 16.25H7.5V19.25H6C5.80109 19.25 5.61032 19.329 5.46967 19.4697C5.32902 19.6103 5.25 19.8011 5.25 20V23C5.25 23.1989 5.32902 23.3897 5.46967 23.5303C5.61032 23.671 5.80109 23.75 6 23.75H7.5V26.75H6C5.80109 26.75 5.61032 26.829 5.46967 26.9697C5.32902 27.1103 5.25 27.3011 5.25 27.5V30.5C5.25 30.6989 5.32902 30.8897 5.46967 31.0303C5.61032 31.171 5.80109 31.25 6 31.25H7.5V34.25H6C5.80109 34.25 5.61032 34.329 5.46967 34.4697C5.32902 34.6103 5.25 34.8011 5.25 35V38C5.25 38.1989 5.32902 38.3897 5.46967 38.5303C5.61032 38.671 5.80109 38.75 6 38.75H10.5C10.6989 38.75 10.8897 38.671 11.0303 38.5303C11.171 38.3897 11.25 38.1989 11.25 38V37.25H15.75V38C15.75 38.1989 15.829 38.3897 15.9697 38.5303C16.1103 38.671 16.3011 38.75 16.5 38.75H21C21.1989 38.75 21.3897 38.671 21.5303 38.5303C21.671 38.3897 21.75 38.1989 21.75 38V37.25H24V35.75H21.75V35C21.75 34.8011 21.671 34.6103 21.5303 34.4697C21.3897 34.329 21.1989 34.25 21 34.25H16.5C16.3011 34.25 16.1103 34.329 15.9697 34.4697C15.829 34.6103 15.75 34.8011 15.75 35V35.75H11.25V35C11.25 34.8011 11.171 34.6103 11.0303 34.4697C10.8897 34.329 10.6989 34.25 10.5 34.25H9V31.25H10.5C10.6989 31.25 10.8897 31.171 11.0303 31.0303C11.171 30.8897 11.25 30.6989 11.25 30.5V27.5C11.25 27.3011 11.171 27.1103 11.0303 26.9697C10.8897 26.829 10.6989 26.75 10.5 26.75H9V23.75H10.5C10.6989 23.75 10.8897 23.671 11.0303 23.5303C11.171 23.3897 11.25 23.1989 11.25 23V22.25H15.75V23C15.75 23.1989 15.829 23.3897 15.9697 23.5303C16.1103 23.671 16.3011 23.75 16.5 23.75H18V26.75H16.5C16.3011 26.75 16.1103 26.829 15.9697 26.9697C15.829 27.1103 15.75 27.3011 15.75 27.5V30.5C15.75 30.6989 15.829 30.8897 15.9697 31.0303C16.1103 31.171 16.3011 31.25 16.5 31.25H21C21.1989 31.25 21.3897 31.171 21.5303 31.0303C21.671 30.8897 21.75 30.6989 21.75 30.5V29.75H24V28.25H21.75V27.5C21.75 27.3011 21.671 27.1103 21.5303 26.9697C21.3897 26.829 21.1989 26.75 21 26.75H19.5V23.75H21C21.1989 23.75 21.3897 23.671 21.5303 23.5303C21.671 23.3897 21.75 23.1989 21.75 23V22.25H24V20.75H21.75V20C21.75 19.8011 21.671 19.6103 21.5303 19.4697C21.3897 19.329 21.1989 19.25 21 19.25H16.5C16.3011 19.25 16.1103 19.329 15.9697 19.4697C15.829 19.6103 15.75 19.8011 15.75 20V20.75H11.25V20C11.25 19.8011 11.171 19.6103 11.0303 19.4697C10.8897 19.329 10.6989 19.25 10.5 19.25H9V16.25H10.5C10.6989 16.25 10.8897 16.171 11.0303 16.0303C11.171 15.8897 11.25 15.6989 11.25 15.5V14.75H15.75V15.5C15.75 15.6989 15.829 15.8897 15.9697 16.0303C16.1103 16.171 16.3011 16.25 16.5 16.25ZM17.25 13.25H20.25V14.75H17.25V13.25ZM17.25 35.75H20.25V37.25H17.25V35.75ZM20.25 28.25V29.75H17.25V28.25H20.25ZM17.25 20.75H20.25V22.25H17.25V20.75ZM9.75 35.75V37.25H6.75V35.75H9.75ZM9.75 28.25V29.75H6.75V28.25H9.75ZM9.75 20.75V22.25H6.75V20.75H9.75ZM9.75 14.75H6.75V13.25H9.75V14.75Z" fill="#2D66EE"/>
</svg>
