<svg width="20" height="20" viewBox="0 0 20 20" fill="none" xmlns="http://www.w3.org/2000/svg">
<path fill-rule="evenodd" clip-rule="evenodd" d="M2.99965 2.99962C4.79021 1.20906 7.26645 0.0999756 10 0.0999756C12.7336 0.0999756 15.2098 1.20906 17.0004 2.99962C18.7909 4.79018 19.9 7.26641 19.9 9.99998C19.9 12.7335 18.7909 15.2098 17.0004 17.0003C15.2098 18.7909 12.7336 19.9 10 19.9C7.26644 19.9 4.79021 18.7909 2.99965 17.0003C1.20909 15.2098 0.100006 12.7335 0.100006 9.99998C0.100006 7.26641 1.20909 4.79018 2.99965 2.99962ZM10 1.89998C7.763 1.89998 5.73924 2.80561 4.27244 4.27241C2.80564 5.73921 1.90001 7.76297 1.90001 9.99998C1.90001 12.237 2.80564 14.2607 4.27244 15.7275C5.73924 17.1943 7.763 18.1 10 18.1C12.237 18.1 14.2608 17.1943 15.7276 15.7275C17.1944 14.2607 18.1 12.237 18.1 9.99998C18.1 7.76297 17.1944 5.73921 15.7276 4.27241C14.2608 2.80561 12.237 1.89998 10 1.89998Z" fill="#2D66EE"/>
<path fill-rule="evenodd" clip-rule="evenodd" d="M5.82808 5.82805C6.89478 4.76134 8.37101 4.09998 10 4.09998C11.629 4.09998 13.1052 4.76134 14.1719 5.82805C15.2386 6.89475 15.9 8.37098 15.9 9.99998C15.9 11.629 15.2386 13.1052 14.1719 14.1719C13.1052 15.2386 11.629 15.9 10 15.9C8.37101 15.9 6.89478 15.2386 5.82808 14.1719C4.76137 13.1052 4.10001 11.629 4.10001 9.99998C4.10001 8.37098 4.76137 6.89475 5.82808 5.82805ZM10 5.89998C8.86757 5.89998 7.84381 6.3579 7.10087 7.10084C6.35793 7.84378 5.90001 8.86754 5.90001 9.99998C5.90001 11.1324 6.35793 12.1562 7.10087 12.8991C7.84381 13.6421 8.86757 14.1 10 14.1C11.1324 14.1 12.1562 13.6421 12.8991 12.8991C13.6421 12.1562 14.1 11.1324 14.1 9.99998C14.1 8.86754 13.6421 7.84378 12.8991 7.10084C12.1562 6.3579 11.1324 5.89998 10 5.89998Z" fill="#2D66EE"/>
<path fill-rule="evenodd" clip-rule="evenodd" d="M11.3435 8.65647C11.0007 8.31363 10.5244 8.09998 10 8.09998C9.47558 8.09998 8.99935 8.31363 8.6565 8.65647C8.31366 8.99932 8.10001 9.47555 8.10001 9.99998C8.10001 10.5244 8.31366 11.0006 8.6565 11.3435C8.99935 11.6863 9.47558 11.9 10 11.9C10.5244 11.9 11.0007 11.6863 11.3435 11.3435C11.6864 11.0006 11.9 10.5244 11.9 9.99998C11.9 9.47555 11.6864 8.99932 11.3435 8.65647Z" fill="#2D66EE"/>
</svg>
