<svg width="22" height="17" viewBox="0 0 22 17" fill="none" xmlns="http://www.w3.org/2000/svg">
<path fill-rule="evenodd" clip-rule="evenodd" d="M2.12687 6.78169C2.24743 6.29948 2.73607 6.00629 3.21828 6.12685L3 6.99998C3.21828 6.12685 3.21843 6.12688 3.21828 6.12685L3.22165 6.12767L3.24233 6.13263C3.26185 6.13725 3.29279 6.14445 3.3349 6.15386C3.41912 6.17267 3.54803 6.20033 3.71968 6.23391C4.063 6.30108 4.57716 6.39194 5.24659 6.48323C6.58562 6.66582 8.54481 6.84998 11 6.84998C13.4552 6.84998 15.4144 6.66582 16.7534 6.48323C17.4228 6.39194 17.937 6.30108 18.2803 6.23391C18.452 6.20033 18.5809 6.17267 18.6651 6.15386C18.7072 6.14445 18.7381 6.13725 18.7577 6.13263L18.7784 6.12767L18.7817 6.12685C18.7816 6.12689 18.7819 6.12681 18.7817 6.12685C19.2637 6.0068 19.7526 6.29974 19.8731 6.78169C19.9937 7.26391 19.7005 7.75255 19.2183 7.87311L19 6.99998C19.2183 7.87311 19.2185 7.87306 19.2183 7.87311L19.2134 7.87432L19.2041 7.87659L19.1725 7.88417C19.1456 7.89054 19.1072 7.89945 19.0576 7.91055C18.9582 7.93275 18.8137 7.96369 18.6259 8.00042C18.2505 8.07387 17.7022 8.17051 16.9966 8.26672C15.5856 8.45913 13.5448 8.64998 11 8.64998C8.45516 8.64998 6.41436 8.45913 5.00339 8.26672C4.29783 8.17051 3.74949 8.07387 3.37406 8.00042C3.18634 7.96369 3.04181 7.93275 2.94244 7.91055C2.89276 7.89945 2.85436 7.89053 2.82749 7.88417L2.79587 7.87659L2.7866 7.87432L2.78361 7.87358L2.78252 7.87331C2.78233 7.87326 2.78172 7.8731 3 6.99998L2.78252 7.87331C2.30031 7.75275 2.00632 7.26391 2.12687 6.78169ZM3.21828 6.12685C3.218 6.12678 3.2182 6.12683 3.21828 6.12685V6.12685Z" fill="#2D66EE"/>
<path d="M20 12.5C20 13.3284 19.3284 14 18.5 14H18V15.2C18 15.48 18 15.62 18.0545 15.727C18.1024 15.8211 18.1789 15.8975 18.273 15.9455C18.38 16 18.52 16 18.8 16H19.2C19.48 16 19.62 16 19.727 15.9455C19.8211 15.8975 19.8976 15.8211 19.9455 15.727C20 15.62 20 15.48 20 15.2V12.5Z" fill="#2D66EE"/>
<path fill-rule="evenodd" clip-rule="evenodd" d="M19.1 15.1H18.9V14.8668C18.9677 14.8554 19.0344 14.8413 19.1 14.8244V15.1ZM20.9 12.5V15.2C20.9 15.2073 20.9 15.2146 20.9 15.2221C20.9 15.3423 20.9001 15.4806 20.8902 15.6017C20.8788 15.7407 20.8501 15.9341 20.7474 16.1356C20.6132 16.399 20.399 16.6132 20.1356 16.7474C19.9341 16.8501 19.7407 16.8788 19.6017 16.8902C19.4806 16.9001 19.3423 16.9 19.2221 16.9C19.2147 16.9 19.2073 16.9 19.2 16.9H18.8C18.7927 16.9 18.7853 16.9 18.7779 16.9C18.6577 16.9 18.5194 16.9001 18.3983 16.8902C18.2593 16.8788 18.0659 16.8501 17.8644 16.7474C17.601 16.6132 17.3868 16.399 17.2526 16.1356C17.1499 15.9341 17.1212 15.7407 17.1098 15.6017C17.0999 15.4806 17.1 15.3423 17.1 15.2221C17.1 15.2146 17.1 15.2073 17.1 15.2V13.1H18.5C18.8314 13.1 19.1 12.8313 19.1 12.5H20.9Z" fill="#2D66EE"/>
<path d="M2 12.5C2 13.3284 2.67157 14 3.5 14H4V15.2C4 15.48 4 15.62 3.9455 15.727C3.89757 15.8211 3.82108 15.8975 3.727 15.9455C3.62004 16 3.48003 16 3.2 16H2.8C2.51997 16 2.37996 16 2.273 15.9455C2.17892 15.8975 2.10243 15.8211 2.0545 15.727C2 15.62 2 15.48 2 15.2V12.5Z" fill="#2D66EE"/>
<path fill-rule="evenodd" clip-rule="evenodd" d="M2.9 15.1H3.1V14.8668C3.03233 14.8554 2.96562 14.8413 2.9 14.8244V15.1ZM1.1 12.5V15.2C1.1 15.2073 1.1 15.2146 1.1 15.2221C1.09996 15.3423 1.09991 15.4806 1.1098 15.6017C1.12116 15.7407 1.14992 15.9341 1.25259 16.1356C1.38681 16.399 1.60099 16.6132 1.86441 16.7474C2.06591 16.8501 2.25928 16.8788 2.39831 16.8902C2.51935 16.9001 2.65766 16.9 2.7779 16.9C2.78534 16.9 2.79271 16.9 2.8 16.9H3.2C3.20729 16.9 3.21466 16.9 3.2221 16.9C3.34234 16.9 3.48065 16.9001 3.60169 16.8902C3.74072 16.8788 3.93409 16.8501 4.13559 16.7474C4.39901 16.6132 4.61319 16.399 4.74741 16.1356C4.85008 15.9341 4.87884 15.7407 4.8902 15.6017C4.90009 15.4806 4.90004 15.3423 4.9 15.2221C4.9 15.2146 4.9 15.2073 4.9 15.2V13.1H3.5C3.16863 13.1 2.9 12.8313 2.9 12.5H1.1Z" fill="#2D66EE"/>
<path fill-rule="evenodd" clip-rule="evenodd" d="M8.66232 0.0999762H13.3377C14.2008 0.0999574 14.9166 0.0999417 15.5047 0.160755C16.124 0.224788 16.6776 0.361912 17.1962 0.682439C17.7149 1.00297 18.0851 1.43678 18.4193 1.96208C18.7368 2.46096 19.0569 3.10119 19.4428 3.87317L20.9 6.78752V14.9H1.1V6.78752L2.55718 3.87316C2.94314 3.10119 3.26324 2.46096 3.58067 1.96208C3.91491 1.43678 4.28513 1.00297 4.80375 0.682439C5.32237 0.361912 5.87596 0.224788 6.49527 0.160755C7.08344 0.0999417 7.79923 0.0999574 8.66232 0.0999762ZM6.68039 1.95121C6.21635 1.99919 5.9564 2.08609 5.75007 2.21361C5.54373 2.34113 5.34976 2.53477 5.09932 2.92837C4.83768 3.33956 4.55833 3.89579 4.14663 4.71919L2.9 7.21245V13.1H19.1V7.21245L17.8534 4.71919C17.4417 3.89579 17.1623 3.33956 16.9007 2.92837C16.6502 2.53477 16.4563 2.34113 16.2499 2.21361C16.0436 2.08609 15.7836 1.99919 15.3196 1.95121C14.8348 1.90109 14.2124 1.89998 13.2918 1.89998H8.70821C7.78762 1.89998 7.16518 1.90109 6.68039 1.95121Z" fill="#2D66EE"/>
<path fill-rule="evenodd" clip-rule="evenodd" d="M0 6.61442V6.38514C0 5.89628 0.396302 5.49998 0.885165 5.49998H3V6.99998L2.63731 7.72536C2.54886 7.90226 2.39856 8.04055 2.21493 8.11401C1.15403 8.53837 0 7.75705 0 6.61442ZM22 6.61442V6.38514C22 5.89628 21.6037 5.49998 21.1148 5.49998H19V6.99998L19.3627 7.72536C19.4511 7.90226 19.6014 8.04055 19.7851 8.11401C20.846 8.53837 22 7.75705 22 6.61442Z" fill="#2D66EE"/>
<path fill-rule="evenodd" clip-rule="evenodd" d="M4.10695 10.3883C4.1686 9.89513 4.61841 9.54527 5.11163 9.60693L7.11163 9.85693C7.60485 9.91858 7.9547 10.3684 7.89305 10.8616C7.8314 11.3548 7.38159 11.7047 6.88837 11.643L4.88837 11.393C4.39515 11.3314 4.0453 10.8816 4.10695 10.3883Z" fill="#2D66EE"/>
<path fill-rule="evenodd" clip-rule="evenodd" d="M17.8931 10.3883C17.8314 9.89513 17.3816 9.54527 16.8884 9.60693L14.8884 9.85693C14.3952 9.91858 14.0453 10.3684 14.107 10.8616C14.1686 11.3548 14.6184 11.7047 15.1116 11.643L17.1116 11.393C17.6048 11.3314 17.9547 10.8816 17.8931 10.3883Z" fill="#2D66EE"/>
</svg>
