<svg width="18" height="18" viewBox="0 0 18 18" fill="none" xmlns="http://www.w3.org/2000/svg">
<path fill-rule="evenodd" clip-rule="evenodd" d="M8.72815 1.83583C8.91107 1.78797 9.10323 1.78806 9.2861 1.83609C9.45205 1.87968 9.63216 1.99425 10.3822 2.55445L16.5552 7.16477C16.9534 7.46221 17.5174 7.38048 17.8148 6.98224C18.1122 6.58399 18.0305 6.02004 17.6323 5.7226L11.4593 1.11228L11.3445 1.0264C10.7737 0.598868 10.2942 0.239842 9.7434 0.0951516C9.26129 -0.0314862 8.75469 -0.0317205 8.27246 0.0944709C7.7215 0.238652 7.24174 0.597235 6.67045 1.02424L6.55559 1.11001L0.368343 5.7221C-0.0301763 6.01917 -0.112422 6.58305 0.184642 6.98157C0.481706 7.38009 1.04559 7.46234 1.44411 7.16527L7.63135 2.55318C8.38195 1.99367 8.56216 1.87927 8.72815 1.83583ZM9.89997 7.89059C9.89997 7.39353 9.49703 6.99059 8.99998 6.99059C8.50292 6.99059 8.09998 7.39353 8.09998 7.89059V16.1004H5.89998V7.89291C5.89998 7.39585 5.49703 6.99291 4.99998 6.99291C4.50292 6.99291 4.09998 7.39585 4.09998 7.89291V16.1004H0.902319C0.405263 16.1004 0.00231934 16.5033 0.00231934 17.0004C0.00231934 17.4974 0.405263 17.9004 0.902319 17.9004H17.0976C17.5947 17.9004 17.9976 17.4974 17.9976 17.0004C17.9976 16.5033 17.5947 16.1004 17.0976 16.1004H13.9V7.89291C13.9 7.39585 13.497 6.99291 13 6.99291C12.5029 6.99291 12.1 7.39585 12.1 7.89291V16.1004H9.89997V7.89059Z" fill="#2D66EE"/>
</svg>
