<svg width="16" height="21" viewBox="0 0 16 21" fill="none" xmlns="http://www.w3.org/2000/svg">
<path fill-rule="evenodd" clip-rule="evenodd" d="M8.89997 0.999976C8.89997 0.502919 8.49703 0.0999756 7.99997 0.0999756C7.50291 0.0999756 7.09997 0.502919 7.09997 0.999976V1.17464C4.8052 1.55963 3.0012 3.39194 2.65869 5.70083L2.58935 5.68971C2.45071 5.66722 2.34503 5.64867 2.27522 5.63598C2.24032 5.62963 2.2144 5.62475 2.19782 5.62158L2.18 5.61814L2.17647 5.61745C1.68922 5.52025 1.2149 5.83621 1.11745 6.32347C1.01997 6.81087 1.33606 7.28502 1.82346 7.3825L1.82485 7.38277L1.82716 7.38323L1.8345 7.38468L1.85998 7.3896C1.88173 7.39375 1.91294 7.39962 1.95323 7.40694C2.03382 7.42159 2.15079 7.4421 2.30122 7.4665C2.56027 7.5085 2.91878 7.56208 3.3617 7.61713C3.35393 7.72706 3.34998 7.83805 3.34998 7.94996C3.34998 10.5189 5.43104 12.6 7.99998 12.6C10.5689 12.6 12.65 10.5189 12.65 7.94996C12.65 7.83805 12.646 7.72706 12.6383 7.61713C13.0812 7.56208 13.4397 7.5085 13.6987 7.4665C13.8491 7.4421 13.9661 7.42159 14.0467 7.40694C14.087 7.39962 14.1182 7.39375 14.14 7.3896L14.1654 7.38468L14.1728 7.38323L14.1751 7.38277L14.1762 7.38255C14.6636 7.28507 14.98 6.81087 14.8825 6.32347C14.785 5.83613 14.311 5.52006 13.8237 5.61741L13.8199 5.61814L13.8021 5.62158C13.7855 5.62475 13.7596 5.62963 13.7247 5.63598C13.6549 5.64867 13.5492 5.66722 13.4106 5.68971L13.3412 5.70083C12.9987 3.39194 11.1947 1.55963 8.89997 1.17464V0.999976ZM7.10007 3.01337C7.10723 3.50425 7.50738 3.89998 7.99997 3.89998C8.49255 3.89998 8.89271 3.50425 8.89987 3.01337C10.272 3.36648 11.3275 4.50815 11.5545 5.92647C10.5923 6.02085 9.37516 6.09998 7.99997 6.09998C6.62478 6.09998 5.40768 6.02085 4.4454 5.92647C4.67246 4.50815 5.72798 3.36647 7.10007 3.01337ZM5.15416 7.79404C5.15138 7.84566 5.14998 7.89765 5.14998 7.94996C5.14998 9.52478 6.42516 10.8 7.99998 10.8C9.57479 10.8 10.85 9.52478 10.85 7.94996C10.85 7.89764 10.8486 7.84566 10.8458 7.79404C10.0103 7.85613 9.04904 7.89998 7.99997 7.89998C6.9509 7.89998 5.98962 7.85613 5.15416 7.79404ZM1.92766 19.0808C1.88723 19.0459 1.88947 18.9615 1.89471 18.7647C1.89704 18.6769 1.89998 18.5667 1.89998 18.4285C1.89998 16.5359 4.67817 15.4 7.99998 15.4C11.3218 15.4 14.1 16.5359 14.1 18.4285C14.1 18.5667 14.1029 18.6769 14.1052 18.7647C14.1105 18.9615 14.1127 19.0459 14.0723 19.0808C14.0419 19.107 13.9876 19.1053 13.8924 19.1024C13.8561 19.1013 13.8138 19.1 13.7647 19.1H2.23527C2.18614 19.1 2.14389 19.1013 2.10757 19.1024C2.01239 19.1053 1.95801 19.107 1.92766 19.0808ZM7.99998 13.6C3.77276 13.6 0.0999756 15.1017 0.0999756 18.4285C0.0999756 20.1641 0.785513 20.9 2.23527 20.9H13.7647C15.2144 20.9 15.9 20.1641 15.9 18.4285C15.9 15.1017 12.2272 13.6 7.99998 13.6Z" fill="#2D66EE"/>
</svg>
