<svg width="46" height="46" viewBox="0 0 46 46" fill="none" xmlns="http://www.w3.org/2000/svg">
<path d="M44.75 7.99986H39.4805C39.0199 7.36616 38.3672 6.89793 37.6194 6.66472C36.8715 6.43151 36.0684 6.44576 35.3293 6.70536C33.9013 4.78031 32.0424 3.21638 29.9014 2.13882C27.7604 1.06125 25.3969 0.5 23 0.5C20.6031 0.5 18.2396 1.06125 16.0986 2.13882C13.9576 3.21638 12.0987 4.78031 10.6707 6.70536C9.93163 6.44576 9.12849 6.43151 8.38062 6.66472C7.63275 6.89793 6.98006 7.36616 6.5195 7.99986H1.25C1.05109 7.99986 0.860322 8.07888 0.71967 8.21953C0.579018 8.36018 0.5 8.55095 0.5 8.74986V37.2499C0.5 37.4488 0.579018 37.6395 0.71967 37.7802C0.860322 37.9208 1.05109 37.9999 1.25 37.9999H20.75V40.9999H16.25C16.0511 40.9999 15.8604 41.0789 15.7197 41.2196L12.7197 44.2196C12.6149 44.3245 12.5435 44.4581 12.5146 44.6036C12.4856 44.7491 12.5005 44.8998 12.5572 45.0369C12.614 45.1739 12.7101 45.291 12.8334 45.3734C12.9567 45.4558 13.1017 45.4998 13.25 45.4999H32.75C32.8983 45.4998 33.0433 45.4558 33.1666 45.3734C33.2899 45.291 33.386 45.1739 33.4428 45.0369C33.4995 44.8998 33.5144 44.7491 33.4854 44.6036C33.4565 44.4581 33.3851 44.3245 33.2803 44.2196L30.2803 41.2196C30.1396 41.0789 29.9489 40.9999 29.75 40.9999H25.25V37.9999H44.75C44.9489 37.9999 45.1397 37.9208 45.2803 37.7802C45.421 37.6395 45.5 37.4488 45.5 37.2499V8.74986C45.5 8.55095 45.421 8.36018 45.2803 8.21953C45.1397 8.07888 44.9489 7.99986 44.75 7.99986ZM38.75 10.2499C38.75 10.6949 38.618 11.1299 38.3708 11.4999C38.1236 11.8699 37.7722 12.1583 37.361 12.3286C36.9499 12.4989 36.4975 12.5434 36.061 12.4566C35.6246 12.3698 35.2237 12.1555 34.909 11.8408C34.5943 11.5262 34.3801 11.1253 34.2932 10.6888C34.2064 10.2524 34.251 9.79995 34.4213 9.38882C34.5916 8.97769 34.88 8.62628 35.25 8.37905C35.62 8.13182 36.055 7.99986 36.5 7.99986C37.0967 7.99986 37.669 8.23691 38.091 8.65887C38.5129 9.08082 38.75 9.65312 38.75 10.2499ZM23 1.99986C25.1337 2.00032 27.2385 2.49301 29.1507 3.43961C31.0629 4.38621 32.7309 5.7612 34.025 7.45761C33.6301 7.8024 33.3122 8.22644 33.0919 8.70217C32.8717 9.17789 32.754 9.69465 32.7466 10.2188C32.7392 10.743 32.8422 11.2629 33.0489 11.7447C33.2556 12.2264 33.5614 12.6593 33.9464 13.0151C34.3313 13.371 34.7869 13.6418 35.2834 13.81C35.78 13.9781 36.3063 14.04 36.8283 13.9914C37.3503 13.9428 37.8562 13.7848 38.3131 13.5279C38.7701 13.2709 39.1678 12.9206 39.4805 12.4999H41V33.4999H28.085L26.9502 28.9594C27.107 28.9177 27.2457 28.8258 27.3451 28.6976C27.4444 28.5693 27.4988 28.412 27.5 28.2499V25.9834C27.8944 25.9443 28.2715 25.8017 28.5931 25.57C28.9148 25.3384 29.1695 25.0258 29.3315 24.6641L31.5815 19.5986C31.7423 19.2365 31.8047 18.8384 31.7622 18.4445C31.7198 18.0506 31.5742 17.6749 31.34 17.3554L23.6052 6.80661C23.5323 6.71627 23.4402 6.6434 23.3354 6.59334C23.2307 6.54327 23.1161 6.51729 23 6.51729C22.8839 6.51729 22.7693 6.54327 22.6646 6.59334C22.5598 6.6434 22.4677 6.71627 22.3948 6.80661L14.6593 17.3554C14.4254 17.6752 14.2799 18.051 14.2375 18.445C14.1951 18.8389 14.2573 19.2371 14.4177 19.5994L16.6677 24.6641C16.8298 25.0259 17.0847 25.3385 17.4064 25.5702C17.7282 25.8019 18.1054 25.9444 18.5 25.9834V28.2499C18.5012 28.412 18.5556 28.5693 18.6549 28.6976C18.7543 28.8258 18.893 28.9177 19.0497 28.9594L17.915 33.4999H5V12.4999H6.5195C6.83218 12.9206 7.22992 13.2709 7.68686 13.5279C8.1438 13.7848 8.64971 13.9428 9.17169 13.9914C9.69367 14.04 10.22 13.9781 10.7166 13.81C11.2131 13.6418 11.6687 13.371 12.0536 13.0151C12.4386 12.6593 12.7444 12.2264 12.9511 11.7447C13.1578 11.2629 13.2608 10.743 13.2534 10.2188C13.246 9.69465 13.1283 9.17789 12.9081 8.70217C12.6878 8.22644 12.3699 7.8024 11.975 7.45761C13.2691 5.7612 14.9371 4.38621 16.8493 3.43961C18.7615 2.49301 20.8663 2.00032 23 1.99986ZM23 16.9999C23.2967 16.9999 23.5867 17.0878 23.8334 17.2527C24.08 17.4175 24.2723 17.6517 24.3858 17.9258C24.4994 18.1999 24.5291 18.5015 24.4712 18.7925C24.4133 19.0835 24.2704 19.3507 24.0607 19.5605C23.8509 19.7703 23.5836 19.9132 23.2926 19.971C23.0017 20.0289 22.7001 19.9992 22.426 19.8857C22.1519 19.7721 21.9176 19.5799 21.7528 19.3332C21.588 19.0865 21.5 18.7965 21.5 18.4999C21.5 18.102 21.658 17.7205 21.9393 17.4392C22.2206 17.1579 22.6022 16.9999 23 16.9999ZM22.25 15.6064C21.543 15.7889 20.9269 16.223 20.517 16.8274C20.1072 17.4317 19.9319 18.1647 20.0239 18.8891C20.1159 19.6135 20.4689 20.2794 21.0168 20.7621C21.5647 21.2448 22.2698 21.5111 23 21.5111C23.7302 21.5111 24.4353 21.2448 24.9832 20.7621C25.5311 20.2794 25.8841 19.6135 25.9761 18.8891C26.0681 18.1647 25.8928 17.4317 25.483 16.8274C25.0731 16.223 24.457 15.7889 23.75 15.6064V9.54111L30.131 18.2411C30.2094 18.3479 30.2582 18.4735 30.2723 18.6053C30.2864 18.737 30.2653 18.8701 30.2113 18.9911L27.9613 24.0559C27.9021 24.1883 27.8057 24.3008 27.6839 24.3796C27.5621 24.4584 27.4201 24.5002 27.275 24.4999H18.725C18.5799 24.4999 18.4379 24.4578 18.3162 24.3787C18.1945 24.2997 18.0984 24.187 18.0395 24.0544L15.7895 18.9904C15.7354 18.8694 15.7144 18.7363 15.7285 18.6045C15.7426 18.4728 15.7913 18.3471 15.8698 18.2404L22.25 9.54111V15.6064ZM26 25.9999V27.4999H20V25.9999H26ZM20.5858 28.9999H25.4143L26.5393 33.4999H19.4608L20.5858 28.9999ZM9.5 7.99986C9.94501 7.99986 10.38 8.13182 10.75 8.37905C11.12 8.62628 11.4084 8.97769 11.5787 9.38882C11.749 9.79995 11.7936 10.2524 11.7068 10.6888C11.62 11.1253 11.4057 11.5262 11.091 11.8408C10.7763 12.1555 10.3754 12.3698 9.93895 12.4566C9.5025 12.5434 9.0501 12.4989 8.63896 12.3286C8.22783 12.1583 7.87643 11.8699 7.62919 11.4999C7.38196 11.1299 7.25 10.6949 7.25 10.2499C7.25 9.65312 7.48705 9.08082 7.90901 8.65887C8.33097 8.23691 8.90326 7.99986 9.5 7.99986ZM30.9395 43.9999H15.0605L16.5605 42.4999H29.4395L30.9395 43.9999ZM23.75 40.9999H22.25V37.9999H23.75V40.9999ZM44 36.4999H2V9.49986H5.825C5.72398 9.99475 5.72398 10.505 5.825 10.9999H4.25C4.05109 10.9999 3.86032 11.0789 3.71967 11.2195C3.57902 11.3602 3.5 11.5509 3.5 11.7499V34.2499C3.5 34.4488 3.57902 34.6395 3.71967 34.7802C3.86032 34.9208 4.05109 34.9999 4.25 34.9999H41.75C41.9489 34.9999 42.1397 34.9208 42.2803 34.7802C42.421 34.6395 42.5 34.4488 42.5 34.2499V11.7499C42.5 11.5509 42.421 11.3602 42.2803 11.2195C42.1397 11.0789 41.9489 10.9999 41.75 10.9999H40.175C40.276 10.505 40.276 9.99475 40.175 9.49986H44V36.4999Z" fill="#2D66EE"/>
<path d="M10.25 27.5H7.25C7.05109 27.5 6.86032 27.579 6.71967 27.7197C6.57902 27.8603 6.5 28.0511 6.5 28.25V31.25C6.5 31.4489 6.57902 31.6397 6.71967 31.7803C6.86032 31.921 7.05109 32 7.25 32H10.25C10.4489 32 10.6397 31.921 10.7803 31.7803C10.921 31.6397 11 31.4489 11 31.25V28.25C11 28.0511 10.921 27.8603 10.7803 27.7197C10.6397 27.579 10.4489 27.5 10.25 27.5ZM9.5 30.5H8V29H9.5V30.5Z" fill="#2D66EE"/>
<path d="M10.25 21.5H7.25C7.05109 21.5 6.86032 21.579 6.71967 21.7197C6.57902 21.8603 6.5 22.0511 6.5 22.25V25.25C6.5 25.4489 6.57902 25.6397 6.71967 25.7803C6.86032 25.921 7.05109 26 7.25 26H10.25C10.4489 26 10.6397 25.921 10.7803 25.7803C10.921 25.6397 11 25.4489 11 25.25V22.25C11 22.0511 10.921 21.8603 10.7803 21.7197C10.6397 21.579 10.4489 21.5 10.25 21.5ZM9.5 24.5H8V23H9.5V24.5Z" fill="#2D66EE"/>
<path d="M10.25 15.5H7.25C7.05109 15.5 6.86032 15.579 6.71967 15.7197C6.57902 15.8603 6.5 16.0511 6.5 16.25V19.25C6.5 19.4489 6.57902 19.6397 6.71967 19.7803C6.86032 19.921 7.05109 20 7.25 20H10.25C10.4489 20 10.6397 19.921 10.7803 19.7803C10.921 19.6397 11 19.4489 11 19.25V16.25C11 16.0511 10.921 15.8603 10.7803 15.7197C10.6397 15.579 10.4489 15.5 10.25 15.5ZM9.5 18.5H8V17H9.5V18.5Z" fill="#2D66EE"/>
<path d="M35.75 32H38.75C38.9489 32 39.1397 31.921 39.2803 31.7803C39.421 31.6397 39.5 31.4489 39.5 31.25V28.25C39.5 28.0511 39.421 27.8603 39.2803 27.7197C39.1397 27.579 38.9489 27.5 38.75 27.5H35.75C35.5511 27.5 35.3603 27.579 35.2197 27.7197C35.079 27.8603 35 28.0511 35 28.25V31.25C35 31.4489 35.079 31.6397 35.2197 31.7803C35.3603 31.921 35.5511 32 35.75 32ZM36.5 29H38V30.5H36.5V29Z" fill="#2D66EE"/>
<path d="M35.75 26H38.75C38.9489 26 39.1397 25.921 39.2803 25.7803C39.421 25.6397 39.5 25.4489 39.5 25.25V22.25C39.5 22.0511 39.421 21.8603 39.2803 21.7197C39.1397 21.579 38.9489 21.5 38.75 21.5H35.75C35.5511 21.5 35.3603 21.579 35.2197 21.7197C35.079 21.8603 35 22.0511 35 22.25V25.25C35 25.4489 35.079 25.6397 35.2197 25.7803C35.3603 25.921 35.5511 26 35.75 26ZM36.5 23H38V24.5H36.5V23Z" fill="#2D66EE"/>
<path d="M35.75 20H38.75C38.9489 20 39.1397 19.921 39.2803 19.7803C39.421 19.6397 39.5 19.4489 39.5 19.25V16.25C39.5 16.0511 39.421 15.8603 39.2803 15.7197C39.1397 15.579 38.9489 15.5 38.75 15.5H35.75C35.5511 15.5 35.3603 15.579 35.2197 15.7197C35.079 15.8603 35 16.0511 35 16.25V19.25C35 19.4489 35.079 19.6397 35.2197 19.7803C35.3603 19.921 35.5511 20 35.75 20ZM36.5 17H38V18.5H36.5V17Z" fill="#2D66EE"/>
</svg>
