<svg width="20" height="19" viewBox="0 0 20 19" fill="none" xmlns="http://www.w3.org/2000/svg">
<path fill-rule="evenodd" clip-rule="evenodd" d="M1.96222 5.89555L8.41711 2.22181C9.39844 1.6633 10.6015 1.6633 11.5828 2.22181L18.0377 5.89555C18.0704 5.91419 18.0795 5.92884 18.0838 5.93669C18.091 5.94949 18.0983 5.97126 18.0983 5.99984C18.0983 6.02842 18.091 6.05019 18.0838 6.063C18.0795 6.07085 18.0704 6.0855 18.0377 6.10414L11.5828 9.77787C10.6015 10.3364 9.39844 10.3364 8.41711 9.77787L1.96222 6.10413C1.92948 6.0855 1.92045 6.07085 1.91607 6.063C1.90893 6.05019 1.90158 6.02842 1.90158 5.99984C1.90158 5.97126 1.90893 5.94949 1.91607 5.93669C1.92045 5.92884 1.92948 5.91419 1.96222 5.89555ZM1.07187 7.66851C-0.221854 6.9322 -0.221852 5.06748 1.07187 4.33117L7.52676 0.657436C9.06009 -0.21524 10.9398 -0.215239 12.4732 0.657437L18.928 4.33117C19.5742 4.69896 19.8977 5.34826 19.8983 5.99786L19.9 5.9999V10.0999C19.9 10.597 19.497 10.9999 19 10.9999C18.5029 10.9999 18.1 10.597 18.1 10.0999V8.1398L12.4731 11.3423C10.9398 12.2149 9.06009 12.2149 7.52676 11.3422L1.07187 7.66851Z" fill="#3F8AE0"/>
<path fill-rule="evenodd" clip-rule="evenodd" d="M15.2 8.09988V10.1083C15.2 11.5233 15.1994 12.5304 15.1349 13.319C15.0713 14.0971 14.9502 14.5829 14.7532 14.9696C14.3601 15.7411 13.7329 16.3683 12.9614 16.7614C12.5747 16.9585 12.0889 17.0796 11.3108 17.1431C10.9314 17.1741 10.5015 17.1904 9.99997 17.1989V18.9991C10.5434 18.9902 11.0262 18.9724 11.4573 18.9372C12.3467 18.8645 13.0958 18.7131 13.7786 18.3652C14.8888 17.7996 15.7913 16.897 16.357 15.7868C16.7049 15.104 16.8563 14.355 16.9289 13.4655C17.0001 12.5951 17.0001 11.5145 17 10.148V8.09988H15.2Z" fill="#3F8AE0"/>
<path fill-rule="evenodd" clip-rule="evenodd" d="M4.9001 8.09988V10.1099C4.9001 11.5249 4.9008 12.532 4.96523 13.3206C5.0288 14.0987 5.14991 14.5845 5.34697 14.9713C5.74005 15.7427 6.36727 16.3699 7.13874 16.763C7.5255 16.9601 8.01129 17.0812 8.7894 17.1448C9.14325 17.1737 9.54103 17.19 9.99997 17.1989V18.9991C9.49713 18.9897 9.04732 18.9718 8.64282 18.9388C7.7534 18.8661 7.00436 18.7147 6.32156 18.3668C5.2114 17.8012 4.30881 16.8986 3.74316 15.7884C3.39526 15.1056 3.24388 14.3566 3.17121 13.4672C3.10009 12.5967 3.10009 11.5161 3.1001 10.1497V8.09988H4.9001Z" fill="#3F8AE0"/>
</svg>
