<svg width="20" height="20" viewBox="0 0 20 20" fill="none" xmlns="http://www.w3.org/2000/svg">
<path fill-rule="evenodd" clip-rule="evenodd" d="M2.99962 2.99962C4.79018 1.20906 7.26641 0.0999756 9.99998 0.0999756C12.7335 0.0999756 15.2098 1.20906 17.0003 2.99962C18.7909 4.79018 19.9 7.26641 19.9 9.99998C19.9 12.7335 18.7909 15.2098 17.0003 17.0003C15.2098 18.7909 12.7335 19.9 9.99998 19.9C7.26641 19.9 4.79018 18.7909 2.99962 17.0003C1.20906 15.2098 0.0999756 12.7335 0.0999756 9.99998C0.0999756 7.26641 1.20906 4.79018 2.99962 2.99962ZM10.8997 18C10.8997 15.8665 10.149 13.9083 8.89732 12.3752L10.4997 10.7728L15.5894 15.8624C14.339 17.055 12.7095 17.8508 10.8996 18.0506L10.8997 18ZM9.09974 18C9.09974 16.3638 8.54627 14.8568 7.61634 13.6562L4.94389 16.3286C6.10947 17.2612 7.5373 17.8779 9.09957 18.0505L9.09974 18ZM1.99974 10.9C3.63595 10.9 5.14288 11.4534 6.34354 12.3834L3.67112 15.0558C2.73856 13.8902 2.12196 12.4624 1.94938 10.9001L1.99974 10.9ZM10.4997 8.22718L12.1022 6.62476C11.0289 5.31028 10.324 3.6833 10.1448 1.90124C10.0966 1.9004 10.0484 1.89998 9.99998 1.89998C8.34389 1.89998 6.80468 2.39632 5.5218 3.24925L10.4997 8.22718ZM15.0558 3.67112L13.3831 5.34378C12.6751 4.42956 12.1852 3.33776 11.9918 2.14653C13.1277 2.43361 14.1678 2.96068 15.0558 3.67112ZM17.8534 8.00791C16.6621 7.81452 15.5702 7.32469 14.6559 6.61657L16.3286 4.94389C17.0391 5.83186 17.5662 6.87204 17.8534 8.00791ZM11.7725 9.49998L13.375 7.89756C14.6895 8.97081 16.3166 9.67575 18.0987 9.85493C18.0996 9.90317 18.1 9.95152 18.1 9.99998C18.1 11.6561 17.6036 13.1953 16.7507 14.4781L11.7725 9.49998ZM7.62453 11.1024L9.22695 9.49998L4.13751 4.41054C2.94496 5.66089 2.1492 7.29031 1.94934 9.10012L1.99974 9.09998C4.13326 9.09998 6.09144 9.8507 7.62453 11.1024Z" fill="#2D66EE"/>
</svg>
