<svg width="20" height="17" viewBox="0 0 20 17" fill="none" xmlns="http://www.w3.org/2000/svg">
<path d="M13.5 3.5C13.9971 3.5 14.4 3.90294 14.4 4.4V5.1H15.1C15.5971 5.1 16 5.50294 16 6C16 6.49706 15.5971 6.9 15.1 6.9H14.4V7.6C14.4 8.09706 13.9971 8.5 13.5 8.5C13.0029 8.5 12.6 8.09706 12.6 7.6V6.9H11.9C11.4029 6.9 11 6.49706 11 6C11 5.50294 11.4029 5.1 11.9 5.1H12.6V4.4C12.6 3.90294 13.0029 3.5 13.5 3.5Z" fill="#2D66EE"/>
<path fill-rule="evenodd" clip-rule="evenodd" d="M10.111 1.69952C11.2389 0.643336 12.5405 0.0698058 13.9918 0.00598621L14.2656 0C17.4228 0 20 2.56027 20 5.71723C20 8.67599 18.9647 10.144 14.4269 13.7784L13.4937 14.5182L11.1296 16.3607C10.4655 16.8783 9.53455 16.8783 8.87045 16.3607L6.18242 14.263C1.12733 10.2688 0 8.80463 0 5.71723C0 2.56027 2.57716 0 5.73438 0C7.2746 0 8.66256 0.576055 9.87226 1.69501L9.994 1.813L10.111 1.69952ZM18.2 5.71723C18.2 3.55704 16.4314 1.8 14.2656 1.8C12.9087 1.8 11.7389 2.41565 10.702 3.70812C10.3441 4.15426 9.66623 4.15771 9.30377 3.71525C8.24077 2.41758 7.06729 1.8 5.73438 1.8C3.56863 1.8 1.8 3.55704 1.8 5.71723C1.8 7.96676 2.59678 9.09768 6.73899 12.4066L7.6128 13.0984L9.97695 14.941C9.9905 14.9515 10.0095 14.9515 10.0231 14.941L12.686 12.8631C17.1332 9.35205 18.1192 8.16744 18.1951 6.01083L18.2 5.71723Z" fill="#2D66EE"/>
</svg>
