<svg width="20" height="20" viewBox="0 0 20 20" fill="none" xmlns="http://www.w3.org/2000/svg">
<path fill-rule="evenodd" clip-rule="evenodd" d="M9.99998 13.6373L13.3 11.732C14.6333 10.9622 14.6333 9.03774 13.3 8.26794L9.99998 6.36267C8.66664 5.59287 6.99997 6.55512 6.99997 8.09473L6.99997 11.9053C6.99997 13.4449 8.66664 14.4071 9.99998 13.6373ZM12.4 9.82678C12.5333 9.90376 12.5333 10.0962 12.4 10.1732L9.09998 12.0785C8.96664 12.1555 8.79997 12.0592 8.79997 11.9053V8.09473C8.79997 7.94076 8.96664 7.84453 9.09998 7.92152L12.4 9.82678Z" fill="#2D66EE"/>
<path fill-rule="evenodd" clip-rule="evenodd" d="M2.99965 2.99962C4.79021 1.20906 7.26645 0.0999756 10 0.0999756C12.7336 0.0999756 15.2098 1.20906 17.0004 2.99962C18.7909 4.79018 19.9 7.26641 19.9 9.99998C19.9 12.7335 18.7909 15.2098 17.0004 17.0003C15.2098 18.7909 12.7336 19.9 10 19.9C7.26644 19.9 4.79021 18.7909 2.99965 17.0003C1.20909 15.2098 0.100006 12.7335 0.100006 9.99998C0.100006 7.26641 1.20909 4.79018 2.99965 2.99962ZM10 1.89998C7.763 1.89998 5.73924 2.80561 4.27244 4.27241C2.80564 5.73921 1.90001 7.76297 1.90001 9.99998C1.90001 12.237 2.80564 14.2607 4.27244 15.7275C5.73924 17.1943 7.763 18.1 10 18.1C12.237 18.1 14.2608 17.1943 15.7276 15.7275C17.1944 14.2607 18.1 12.237 18.1 9.99998C18.1 7.76297 17.1944 5.73921 15.7276 4.27241C14.2608 2.80561 12.237 1.89998 10 1.89998Z" fill="#2D66EE"/>
</svg>
