<svg width="14" height="20" viewBox="0 0 14 20" fill="none" xmlns="http://www.w3.org/2000/svg">
<path fill-rule="evenodd" clip-rule="evenodd" d="M6.17998 1.9001H7.81997C8.91377 1.9001 9.62587 1.9015 10.1692 1.94589C10.6916 1.98857 10.8976 2.06184 11.0079 2.11808C11.3843 2.30983 11.6902 2.61579 11.882 2.99212C11.9382 3.10251 12.0115 3.3085 12.0542 3.83084C12.0986 4.3742 12.1 5.0863 12.1 6.1801V13.8201C12.1 14.9139 12.0986 15.626 12.0542 16.1694C12.0115 16.6917 11.9382 16.8977 11.882 17.0081C11.6902 17.3844 11.3843 17.6904 11.0079 17.8821C10.8976 17.9384 10.6916 18.0117 10.1692 18.0543C9.62587 18.0987 8.91377 18.1001 7.81997 18.1001H6.17998C5.08618 18.1001 4.37408 18.0987 3.83072 18.0543C3.30838 18.0117 3.10238 17.9384 2.99199 17.8821C2.61567 17.6904 2.30971 17.3844 2.11796 17.0081C2.06172 16.8977 1.98845 16.6917 1.94577 16.1694C1.90138 15.626 1.89998 14.9139 1.89998 13.8201V6.18009C1.89998 5.08629 1.90138 4.3742 1.94577 3.83084C1.98845 3.3085 2.06172 3.10251 2.11796 2.99212C2.30971 2.61579 2.61567 2.30983 2.99199 2.11808C3.10238 2.06184 3.30838 1.98857 3.83072 1.94589C4.37408 1.9015 5.08617 1.9001 6.17998 1.9001ZM0.0999756 6.18009C0.0999756 4.0519 0.0999756 2.9878 0.514151 2.17493C0.87847 1.45992 1.4598 0.878592 2.17481 0.514273C2.98768 0.100097 4.05178 0.100098 6.17998 0.100098H7.81997C9.94817 0.100098 11.0123 0.100097 11.8251 0.514273C12.5401 0.878592 13.1215 1.45992 13.4858 2.17493C13.9 2.9878 13.9 4.0519 13.9 6.1801V13.8201C13.9 15.9483 13.9 17.0124 13.4858 17.8253C13.1215 18.5403 12.5401 19.1216 11.8251 19.4859C11.0123 19.9001 9.94817 19.9001 7.81997 19.9001H6.17998C4.05178 19.9001 2.98768 19.9001 2.17481 19.4859C1.4598 19.1216 0.87847 18.5403 0.514151 17.8253C0.0999756 17.0124 0.0999756 15.9483 0.0999756 13.8201V6.18009ZM6.24997 14.2001C5.75291 14.2001 5.34997 14.603 5.34997 15.1001C5.34997 15.5972 5.75291 16.0001 6.24997 16.0001H7.74997C8.24703 16.0001 8.64997 15.5972 8.64997 15.1001C8.64997 14.603 8.24703 14.2001 7.74997 14.2001H6.24997Z" fill="#98A2B3"/>
</svg>
