<svg width="18" height="19" viewBox="0 0 18 19" fill="none" xmlns="http://www.w3.org/2000/svg">
<path d="M3.37366 5.39668C3.19965 5.48866 3.0114 5.3004 3.10338 5.12639L4.09522 3.25002L3.10338 1.37365C3.0114 1.19965 3.19965 1.01139 3.37366 1.10337L5.25003 2.09521L7.1264 1.10337C7.30041 1.01139 7.48866 1.19965 7.39668 1.37365L6.40484 3.25002L7.39668 5.12639C7.48866 5.3004 7.30041 5.48866 7.1264 5.39668L5.25003 4.40484L3.37366 5.39668Z" fill="#2D66EE"/>
<path d="M15.25 3.90484L13.3737 4.89668C13.1997 4.98866 13.0114 4.8004 13.1034 4.62639L14.0952 2.75002L13.1034 0.873655C13.0114 0.699647 13.1997 0.511393 13.3737 0.603373L15.25 1.59521L17.1264 0.603373C17.3004 0.511393 17.4887 0.699647 17.3967 0.873655L16.4048 2.75002L17.3967 4.62639C17.4887 4.8004 17.3004 4.98866 17.1264 4.89668L15.25 3.90484Z" fill="#2D66EE"/>
<path d="M13.3737 14.3967C13.1997 14.4887 13.0114 14.3004 13.1034 14.1264L14.0952 12.25L13.1034 10.3737C13.0114 10.1996 13.1997 10.0114 13.3737 10.1034L15.25 11.0952L17.1264 10.1034C17.3004 10.0114 17.4887 10.1996 17.3967 10.3737L16.4048 12.25L17.3967 14.1264C17.4887 14.3004 17.3004 14.4887 17.1264 14.3967L15.25 13.4048L13.3737 14.3967Z" fill="#2D66EE"/>
<path fill-rule="evenodd" clip-rule="evenodd" d="M11.1364 7.36364C11.4879 7.71511 11.4879 8.28496 11.1364 8.63643L1.6364 18.1364C1.28493 18.4879 0.715082 18.4879 0.36361 18.1364C0.0121382 17.785 0.0121381 17.2151 0.36361 16.8636L9.86361 7.36364C10.2151 7.01216 10.7849 7.01216 11.1364 7.36364Z" fill="#2D66EE"/>
</svg>
