<svg width="20" height="20" viewBox="0 0 20 20" fill="none" xmlns="http://www.w3.org/2000/svg">
<path fill-rule="evenodd" clip-rule="evenodd" d="M3.62599 0.731866C3.97747 0.380394 4.54732 0.380394 4.89879 0.731866L11.2163 7.04934C11.2327 7.06576 11.2483 7.08266 11.2632 7.09998H17.6667C17.6885 7.09998 17.7107 7.09993 17.7332 7.09987C17.9709 7.09925 18.2447 7.09853 18.4918 7.16472C19.1474 7.34041 19.6596 7.85255 19.8353 8.50823C19.9015 8.75526 19.9007 9.02909 19.9001 9.26673C19.9001 9.28927 19.9 9.31148 19.9 9.33332C19.9 9.38542 19.9 9.43683 19.9 9.48756C19.9003 10.8896 19.9004 11.7751 19.699 12.527C19.1872 14.437 17.756 15.9547 15.9 16.5857V17.02C15.9 17.0489 15.9 17.0777 15.9001 17.1063C15.9006 17.4645 15.901 17.7992 15.8246 18.0968C15.6069 18.9448 14.9448 19.6069 14.0969 19.8246C13.7992 19.901 13.4645 19.9005 13.1064 19.9001C13.0777 19.9 13.0489 19.9 13.02 19.9H6.98C6.95107 19.9 6.92228 19.9 6.89365 19.9001C6.53547 19.9005 6.20077 19.901 5.90315 19.8246C5.05523 19.6069 4.39311 18.9448 4.1754 18.0968C4.09898 17.7992 4.09944 17.4645 4.09992 17.1063C4.09996 17.0777 4.1 17.0489 4.1 17.02V16.5857C2.24397 15.9547 0.812812 14.437 0.301039 12.527C0.0995626 11.7751 0.0997251 10.8896 0.0999822 9.48759C0.0999915 9.43685 0.100001 9.38543 0.100001 9.33332C0.100001 9.31148 0.099943 9.28927 0.0998841 9.26673C0.0992635 9.02909 0.0985485 8.75526 0.164742 8.50823C0.34043 7.85255 0.85257 7.34041 1.50824 7.16472C1.75528 7.09853 2.02911 7.09925 2.26675 7.09987C2.28929 7.09993 2.3115 7.09998 2.33333 7.09998H4.47868L1.50467 4.12598C1.1532 3.77451 1.1532 3.20466 1.50467 2.85319C1.85615 2.50171 2.42599 2.50171 2.77747 2.85319L7.02426 7.09998H8.72132L3.62599 2.00466C3.27452 1.65319 3.27452 1.08334 3.62599 0.731866ZM7.66667 15.1H12.3333C13.9412 15.1 14.5686 15.0923 15.0612 14.9603C16.476 14.5812 17.5812 13.476 17.9603 12.0611C18.0923 11.5686 18.1 10.9412 18.1 9.33332C18.1 9.17017 18.0998 9.07782 18.0967 9.00969C18.0956 8.98711 18.0945 8.97286 18.0937 8.96502C18.0836 8.93787 18.0621 8.91642 18.035 8.9063C18.0271 8.90552 18.0129 8.90434 17.9903 8.90331C17.9222 8.9002 17.8298 8.89998 17.6667 8.89998H2.33333C2.17018 8.89998 2.07784 8.9002 2.0097 8.90331C1.98713 8.90434 1.97287 8.90552 1.96503 8.9063C1.93789 8.91642 1.91644 8.93787 1.90631 8.96501C1.90553 8.97285 1.90436 8.98711 1.90333 9.00968C1.90022 9.07782 1.9 9.17016 1.9 9.33332C1.9 10.9412 1.90773 11.5686 2.03971 12.0611C2.41882 13.476 3.52397 14.5812 4.93884 14.9603C5.43138 15.0923 6.05877 15.1 7.66667 15.1ZM5.9 16.9V17.02C5.9 17.5219 5.90713 17.6035 5.91885 17.6492C5.97328 17.8612 6.13881 18.0267 6.35079 18.0811C6.39644 18.0929 6.47812 18.1 6.98 18.1H13.02C13.5219 18.1 13.6036 18.0929 13.6492 18.0811C13.8612 18.0267 14.0267 17.8612 14.0812 17.6492C14.0929 17.6035 14.1 17.5219 14.1 17.02V16.9H12.7789C12.6843 16.9 12.5873 16.9 12.4876 16.9C12.4369 16.9 12.3855 16.9 12.3333 16.9H7.66667C7.61455 16.9 7.56313 16.9 7.51239 16.9C7.41274 16.9 7.31571 16.9 7.22115 16.9H5.9Z" fill="#2D66EE"/>
</svg>
