<svg width="20" height="22" viewBox="0 0 20 22" fill="none" xmlns="http://www.w3.org/2000/svg">
<path d="M12.2977 0.434782C13.0301 0.60572 13.6748 0.977961 14.189 1.52673C14.7103 2.08303 15.0136 2.67244 15.34 3.82461L16.1309 6.769C16.2738 7.30246 15.9572 7.8508 15.4238 7.99374C14.8903 8.13668 14.342 7.8201 14.199 7.28663L13.4786 4.59795L13.366 4.19565C13.151 3.46707 12.9894 3.17153 12.7296 2.89425C12.4856 2.6339 12.1906 2.46353 11.8431 2.38243C11.4731 2.29606 11.1363 2.30392 10.3979 2.48204L9.99318 2.58564L4.86571 3.95954C4.01172 4.18837 3.61196 4.35416 3.35689 4.54274L3.29595 4.5904L3.16201 4.70853C2.90166 4.95248 2.73129 5.24757 2.65019 5.59502C2.55662 5.9959 2.57364 6.35767 2.79792 7.23347L5.5214 17.4021L5.63404 17.8043C5.84901 18.5329 6.01056 18.8285 6.27038 19.1058C6.51434 19.3661 6.80943 19.5365 7.15688 19.6176C7.55809 19.7112 7.90219 19.6939 8.76422 19.4774C9.29986 19.3429 9.84315 19.6681 9.97769 20.2037C10.1122 20.7393 9.78705 21.2826 9.2514 21.4172C8.10257 21.7057 7.44564 21.7387 6.70228 21.5652C5.96992 21.3943 5.32518 21.022 4.81097 20.4733C4.28969 19.917 3.9864 19.3276 3.65994 18.1754L0.921552 7.96259C0.566921 6.63909 0.51688 5.93586 0.702543 5.14042C0.854488 4.48944 1.16549 3.90768 1.63267 3.41205L1.81518 3.23026L1.99402 3.07252C2.48972 2.66088 3.07127 2.38817 4.08534 2.10011L4.34807 2.02769L9.47554 0.653791C10.799 0.29916 11.5023 0.249119 12.2977 0.434782ZM16.3684 10C18.3686 10 20 11.5915 20 13.5673C20 15.4763 19.2284 16.4183 16.2201 18.7009L14.8923 19.7084C14.3648 20.1087 13.6352 20.1087 13.1077 19.7084L11.7799 18.7009C8.77162 16.4183 7.99999 15.4763 7.99999 13.5673C7.99999 11.5915 9.63137 10 11.6316 10C12.4608 10 13.2275 10.2237 13.914 10.6597L14 10.717L14.086 10.6597C14.7039 10.2673 15.3867 10.0469 16.1215 10.0067L16.3684 10Z" fill="#2D66EE"/>
</svg>
