<svg width="20" height="18" viewBox="0 0 20 18" fill="none" xmlns="http://www.w3.org/2000/svg">
<path fill-rule="evenodd" clip-rule="evenodd" d="M9.16461 0.0999762H9.20001H10.8H10.8354H10.8354C11.3653 0.099962 11.8165 0.0999498 12.1869 0.130215C12.5761 0.162011 12.9546 0.231645 13.3166 0.416059C13.8623 0.694091 14.3059 1.13773 14.5839 1.6834C14.7683 2.04534 14.838 2.42393 14.8698 2.81309C14.8988 3.16838 14.9 3.59795 14.9 4.09998H15.8L15.8354 4.09998C16.3653 4.09996 16.8165 4.09995 17.1869 4.13021C17.5761 4.16201 17.9546 4.23164 18.3166 4.41606C18.8623 4.69409 19.3059 5.13773 19.5839 5.6834C19.7683 6.04534 19.838 6.42393 19.8698 6.81309C19.9 7.18351 19.9 7.63468 19.9 8.16453V8.16455V8.16457V8.19998V9.59998V9.63332C19.9 10.0248 19.9 10.3713 19.8766 10.6585C19.8516 10.9642 19.7956 11.2811 19.6384 11.5896C19.4083 12.0411 19.0412 12.4083 18.5896 12.6384C18.3617 12.7545 18.1292 12.8154 17.9 12.8494V13.4V13.4361C17.9 14.0354 17.9 14.539 17.8664 14.9511C17.8312 15.3819 17.7547 15.7914 17.5567 16.18C17.2547 16.7728 16.7728 17.2546 16.1801 17.5566C15.7914 17.7547 15.3819 17.8311 14.9511 17.8663C14.539 17.9 14.0355 17.9 13.4362 17.9H13.4362L13.4 17.9H6.60001L6.56387 17.9H6.56377C5.96453 17.9 5.46099 17.9 5.04892 17.8663C4.61808 17.8311 4.20861 17.7547 3.81994 17.5566C3.22723 17.2546 2.74534 16.7728 2.44334 16.18C2.2453 15.7914 2.16885 15.3819 2.13365 14.9511C2.09998 14.539 2.1 14.0354 2.10001 13.4361L2.10001 13.4V12.8494C1.8708 12.8154 1.63832 12.7545 1.41043 12.6384C0.958843 12.4083 0.59169 12.0411 0.361593 11.5896C0.204428 11.2811 0.148418 10.9642 0.123434 10.6585C0.0999738 10.3713 0.0999894 10.0248 0.100007 9.63336V9.63331L0.100009 9.59998V8.19998L0.100007 8.16457V8.16451C0.0999937 7.63467 0.0999822 7.18351 0.130247 6.81309C0.162042 6.42393 0.231676 6.04534 0.41609 5.6834C0.694123 5.13773 1.13777 4.69409 1.68344 4.41606C2.04537 4.23164 2.42396 4.16201 2.81312 4.13021C3.18356 4.09995 3.63474 4.09996 4.16461 4.09998L4.20001 4.09998H5.10001C5.10004 3.59795 5.10122 3.16838 5.13025 2.81309C5.16204 2.42393 5.23168 2.04534 5.41609 1.6834C5.69412 1.13773 6.13777 0.694091 6.68344 0.416059C7.04537 0.231645 7.42396 0.162011 7.81312 0.130215C8.18355 0.0999498 8.63472 0.099962 9.16458 0.0999762H9.16461ZM3.40001 11.1H16.6C17.0349 11.1 17.3069 11.0993 17.5119 11.0825C17.7064 11.0666 17.76 11.0409 17.7724 11.0346C17.8853 10.9771 17.9771 10.8853 18.0346 10.7724C18.0409 10.76 18.0667 10.7064 18.0826 10.5119C18.0993 10.3069 18.1 10.0349 18.1 9.59998V8.19998C18.1 7.62507 18.0993 7.24802 18.0758 6.95967C18.053 6.68182 18.0137 6.56648 17.9801 6.50059C17.8747 6.29361 17.7064 6.12533 17.4994 6.01987C17.4335 5.9863 17.3182 5.94694 17.0403 5.92424C16.752 5.90068 16.3749 5.89998 15.8 5.89998H14.9V5.89999H14H6.00001H5.10001V5.89998H4.20001C3.62511 5.89998 3.24806 5.90068 2.9597 5.92424C2.68185 5.94694 2.56651 5.9863 2.50062 6.01987C2.29364 6.12533 2.12536 6.29361 2.0199 6.50059C1.98633 6.56648 1.94697 6.68182 1.92427 6.95967C1.90071 7.24802 1.90001 7.62507 1.90001 8.19998V9.59998C1.90001 10.0349 1.90071 10.3069 1.91746 10.5119C1.93335 10.7064 1.95908 10.76 1.96541 10.7724C2.02293 10.8853 2.11472 10.9771 2.22761 11.0346C2.24003 11.0409 2.29363 11.0666 2.4881 11.0825C2.69308 11.0993 2.96512 11.1 3.40001 11.1ZM3.90001 12.9V13.4C3.90001 14.0449 3.90071 14.4744 3.92767 14.8045C3.95378 15.124 3.99995 15.2702 4.04715 15.3629C4.17658 15.6169 4.3831 15.8234 4.63712 15.9528C4.72975 16 4.87597 16.0462 5.1955 16.0723C5.52554 16.0993 5.9551 16.1 6.60001 16.1H13.4C14.0449 16.1 14.4745 16.0993 14.8045 16.0723C15.1241 16.0462 15.2703 16 15.3629 15.9528C15.6169 15.8234 15.8234 15.6169 15.9529 15.3629C16.0001 15.2702 16.0462 15.124 16.0723 14.8045C16.0993 14.4744 16.1 14.0449 16.1 13.4V12.9H3.90001ZM13.0757 2.95967C13.0979 3.23096 13.0998 3.58076 13.1 4.09998H6.90002C6.90017 3.58076 6.9021 3.23096 6.92427 2.95967C6.94697 2.68182 6.98633 2.56648 7.0199 2.50059C7.12536 2.29361 7.29364 2.12533 7.50062 2.01987C7.56651 1.9863 7.68185 1.94694 7.9597 1.92424C8.24806 1.90068 8.62511 1.89998 9.20001 1.89998H10.8C11.3749 1.89998 11.752 1.90068 12.0403 1.92424C12.3182 1.94694 12.4335 1.9863 12.4994 2.01987C12.7064 2.12533 12.8747 2.29361 12.9801 2.50059C13.0137 2.56648 13.053 2.68182 13.0757 2.95967Z" fill="#2D66EE"/>
</svg>
