<svg width="46" height="46" viewBox="0 0 46 46" fill="none" xmlns="http://www.w3.org/2000/svg">
<path d="M21.5 22.25H30.5V23.75H21.5V22.25Z" fill="#2D66EE"/>
<path d="M15.5 22.25H20V23.75H15.5V22.25Z" fill="#2D66EE"/>
<path d="M15.5 25.25H30.5V26.75H15.5V25.25Z" fill="#2D66EE"/>
<path d="M15.5 19.25H30.5V20.75H15.5V19.25Z" fill="#2D66EE"/>
<path d="M24.5 6.5H26V8H24.5V6.5Z" fill="#2D66EE"/>
<path d="M21.5 9.5H23V11H21.5V9.5Z" fill="#2D66EE"/>
<path d="M23 35H24.5V36.5H23V35Z" fill="#2D66EE"/>
<path d="M20 38H21.5V39.5H20V38Z" fill="#2D66EE"/>
<path d="M44.84 32.0825L43.04 31.85L44.1575 30.4175C44.2688 30.2731 44.3241 30.0933 44.313 29.9113C44.302 29.7293 44.2254 29.5574 44.0975 29.4275L42.0725 27.4025C41.9426 27.2746 41.7707 27.198 41.5887 27.187C41.4067 27.1759 41.2269 27.2312 41.0825 27.3425L39.65 28.46L39.4175 26.66C39.3955 26.4784 39.3079 26.311 39.1712 26.1894C39.0344 26.0679 38.858 26.0005 38.675 26H36.5V2.75C36.4982 2.15381 36.2606 1.58255 35.839 1.16098C35.4175 0.739405 34.8462 0.501781 34.25 0.5H11.75C11.1538 0.501781 10.5825 0.739405 10.161 1.16098C9.7394 1.58255 9.50178 2.15381 9.5 2.75V3.5H7.325C7.14203 3.50051 6.96556 3.56788 6.82881 3.68944C6.69206 3.811 6.60446 3.97835 6.5825 4.16L6.35 5.96L4.9175 4.8425C4.77309 4.73119 4.59325 4.67594 4.41126 4.68698C4.22926 4.69801 4.05741 4.77457 3.9275 4.9025L1.9025 6.9275C1.77457 7.05741 1.69801 7.22926 1.68698 7.41126C1.67594 7.59325 1.73119 7.77309 1.8425 7.9175L2.96 9.35L1.16 9.5825C0.978353 9.60445 0.810998 9.69206 0.68944 9.82881C0.567882 9.96556 0.500508 10.142 0.5 10.325V13.175C0.500508 13.358 0.567882 13.5344 0.68944 13.6712C0.810998 13.8079 0.978353 13.8955 1.16 13.9175L2.96 14.15L1.8425 15.5825C1.73119 15.7269 1.67594 15.9067 1.68698 16.0887C1.69801 16.2707 1.77457 16.4426 1.9025 16.5725L3.9275 18.5975C4.05741 18.7254 4.22926 18.802 4.41126 18.813C4.59325 18.8241 4.77309 18.7688 4.9175 18.6575L6.35 17.54L6.5825 19.34C6.60446 19.5216 6.69206 19.689 6.82881 19.8106C6.96556 19.9321 7.14203 19.9995 7.325 20H9.5V43.25C9.50178 43.8462 9.7394 44.4175 10.161 44.839C10.5825 45.2606 11.1538 45.4982 11.75 45.5H34.25C34.8462 45.4982 35.4175 45.2606 35.839 44.839C36.2606 44.4175 36.4982 43.8462 36.5 43.25V42.5H38.675C38.858 42.4995 39.0344 42.4321 39.1712 42.3106C39.3079 42.189 39.3955 42.0216 39.4175 41.84L39.65 40.04L41.0825 41.1575C41.2269 41.2688 41.4067 41.3241 41.5887 41.313C41.7707 41.302 41.9426 41.2254 42.0725 41.0975L44.0975 39.0725C44.2254 38.9426 44.302 38.7707 44.313 38.5887C44.3241 38.4067 44.2688 38.2269 44.1575 38.0825L43.04 36.65L44.84 36.4175C45.0216 36.3955 45.189 36.3079 45.3106 36.1712C45.4321 36.0344 45.4995 35.858 45.5 35.675V32.825C45.4995 32.642 45.4321 32.4656 45.3106 32.3288C45.189 32.1921 45.0216 32.1045 44.84 32.0825ZM9.5 13.85C9.26115 13.945 9.00702 13.9958 8.75 14C8.15326 14 7.58097 13.7629 7.15901 13.341C6.73705 12.919 6.5 12.3467 6.5 11.75C6.5 11.1533 6.73705 10.581 7.15901 10.159C7.58097 9.73705 8.15326 9.5 8.75 9.5C9.00702 9.50416 9.26115 9.55498 9.5 9.65V13.85ZM9.5 8.0825C9.253 8.03242 9.00198 8.0048 8.75 8C7.75544 8 6.80161 8.39509 6.09835 9.09835C5.39509 9.80161 5 10.7554 5 11.75C5 12.7446 5.39509 13.6984 6.09835 14.4017C6.80161 15.1049 7.75544 15.5 8.75 15.5C9.00198 15.4952 9.253 15.4676 9.5 15.4175V18.5H7.985L7.76 16.715C7.74068 16.5732 7.68193 16.4397 7.59044 16.3296C7.49895 16.2196 7.37839 16.1374 7.2425 16.0925C7.06164 16.0382 6.88595 15.9679 6.7175 15.8825C6.59292 15.8214 6.4536 15.7967 6.3156 15.8113C6.1776 15.8259 6.04654 15.8792 5.9375 15.965L4.52 17.0675L3.4325 15.98L4.535 14.5625C4.621 14.4535 4.67439 14.3225 4.68899 14.1844C4.70359 14.0464 4.6788 13.907 4.6175 13.7825C4.53212 13.614 4.46185 13.4384 4.4075 13.2575C4.3626 13.1216 4.28045 13.0011 4.17039 12.9096C4.06034 12.8181 3.92681 12.7593 3.785 12.74L2 12.515V10.985L3.785 10.76C3.92681 10.7407 4.06034 10.6819 4.17039 10.5904C4.28045 10.4989 4.3626 10.3784 4.4075 10.2425C4.46185 10.0616 4.53212 9.88595 4.6175 9.7175C4.6788 9.59296 4.70359 9.45361 4.68899 9.31558C4.67439 9.17754 4.621 9.04646 4.535 8.9375L3.4325 7.52L4.52 6.4325L5.9375 7.535C6.04654 7.62084 6.1776 7.67412 6.3156 7.68872C6.4536 7.70332 6.59292 7.67863 6.7175 7.6175C6.88595 7.53212 7.06164 7.46185 7.2425 7.4075C7.37839 7.3626 7.49895 7.28045 7.59044 7.17039C7.68193 7.06034 7.74068 6.92681 7.76 6.785L7.985 5H9.5V8.0825ZM15.5 2H30.5V2.75C30.5 2.94891 30.421 3.13968 30.2803 3.28033C30.1397 3.42098 29.9489 3.5 29.75 3.5H16.25C16.0511 3.5 15.8603 3.42098 15.7197 3.28033C15.579 3.13968 15.5 2.94891 15.5 2.75V2ZM35 12.5H29.75V10.25C29.75 10.0511 29.671 9.86032 29.5303 9.71967C29.3897 9.57902 29.1989 9.5 29 9.5H24.5V11H28.25V13.25C28.25 13.4489 28.329 13.6397 28.4697 13.7803C28.6103 13.921 28.8011 14 29 14H35V33.5H27.5C27.3011 33.5 27.1103 33.579 26.9697 33.7197C26.829 33.8603 26.75 34.0511 26.75 34.25V38H23V39.5H27.5C27.6989 39.5 27.8897 39.421 28.0303 39.2803C28.171 39.1397 28.25 38.9489 28.25 38.75V35H35V43.25C35 43.4489 34.921 43.6397 34.7803 43.7803C34.6397 43.921 34.4489 44 34.25 44H11.75C11.5511 44 11.3603 43.921 11.2197 43.7803C11.079 43.6397 11 43.4489 11 43.25V33.5H16.25V35.75C16.25 35.9489 16.329 36.1397 16.4697 36.2803C16.6103 36.421 16.8011 36.5 17 36.5H21.5V35H17.75V32.75C17.75 32.5511 17.671 32.3603 17.5303 32.2197C17.3897 32.079 17.1989 32 17 32H11V12.5H18.5C18.6989 12.5 18.8897 12.421 19.0303 12.2803C19.171 12.1397 19.25 11.9489 19.25 11.75V8H23V6.5H18.5C18.3011 6.5 18.1103 6.57902 17.9697 6.71967C17.829 6.86032 17.75 7.05109 17.75 7.25V11H11V2.75C11 2.55109 11.079 2.36032 11.2197 2.21967C11.3603 2.07902 11.5511 2 11.75 2H14V2.75C14.0018 3.34619 14.2394 3.91745 14.661 4.33902C15.0825 4.76059 15.6538 4.99822 16.25 5H29.75C30.3462 4.99822 30.9175 4.76059 31.339 4.33902C31.7606 3.91745 31.9982 3.34619 32 2.75V2H34.25C34.4489 2 34.6397 2.07902 34.7803 2.21967C34.921 2.36032 35 2.55109 35 2.75V12.5ZM36.5 32.15C36.7388 32.055 36.993 32.0042 37.25 32C37.8467 32 38.419 32.2371 38.841 32.659C39.2629 33.081 39.5 33.6533 39.5 34.25C39.5 34.8467 39.2629 35.419 38.841 35.841C38.419 36.2629 37.8467 36.5 37.25 36.5C36.993 36.4958 36.7388 36.445 36.5 36.35V32.15ZM44 35.015L42.215 35.24C42.0732 35.2593 41.9397 35.3181 41.8296 35.4096C41.7196 35.5011 41.6374 35.6216 41.5925 35.7575C41.5382 35.9384 41.4679 36.114 41.3825 36.2825C41.3212 36.407 41.2964 36.5464 41.311 36.6844C41.3256 36.8225 41.379 36.9535 41.465 37.0625L42.5675 38.48L41.48 39.5675L40.0625 38.465C39.9535 38.379 39.8225 38.3256 39.6844 38.311C39.5464 38.2964 39.407 38.3212 39.2825 38.3825C39.114 38.4679 38.9384 38.5382 38.7575 38.5925C38.6216 38.6374 38.5011 38.7196 38.4096 38.8296C38.3181 38.9397 38.2593 39.0732 38.24 39.215L38.015 41H36.5V37.9175C36.747 37.9676 36.998 37.9952 37.25 38C38.2446 38 39.1984 37.6049 39.9016 36.9016C40.6049 36.1984 41 35.2446 41 34.25C41 33.2554 40.6049 32.3016 39.9016 31.5984C39.1984 30.8951 38.2446 30.5 37.25 30.5C36.998 30.5048 36.747 30.5324 36.5 30.5825V27.5H38.015L38.24 29.285C38.2593 29.4268 38.3181 29.5603 38.4096 29.6704C38.5011 29.7804 38.6216 29.8626 38.7575 29.9075C38.9384 29.9618 39.114 30.0321 39.2825 30.1175C39.407 30.1788 39.5464 30.2036 39.6844 30.189C39.8225 30.1744 39.9535 30.121 40.0625 30.035L41.48 28.9325L42.5675 30.02L41.465 31.4375C41.379 31.5465 41.3256 31.6775 41.311 31.8156C41.2964 31.9536 41.3212 32.093 41.3825 32.2175C41.4679 32.386 41.5382 32.5616 41.5925 32.7425C41.6374 32.8784 41.7196 32.9989 41.8296 33.0904C41.9397 33.1819 42.0732 33.2407 42.215 33.26L44 33.485V35.015Z" fill="#2D66EE"/>
<path d="M31.25 16.25H14.75C14.1538 16.2518 13.5825 16.4894 13.161 16.911C12.7394 17.3325 12.5018 17.9038 12.5 18.5V27.5C12.5018 28.0962 12.7394 28.6675 13.161 29.089C13.5825 29.5106 14.1538 29.7482 14.75 29.75H31.25C31.8462 29.7482 32.4175 29.5106 32.839 29.089C33.2606 28.6675 33.4982 28.0962 33.5 27.5V18.5C33.4982 17.9038 33.2606 17.3325 32.839 16.911C32.4175 16.4894 31.8462 16.2518 31.25 16.25ZM32 27.5C32 27.6989 31.921 27.8897 31.7803 28.0303C31.6397 28.171 31.4489 28.25 31.25 28.25H14.75C14.5511 28.25 14.3603 28.171 14.2197 28.0303C14.079 27.8897 14 27.6989 14 27.5V18.5C14 18.3011 14.079 18.1103 14.2197 17.9697C14.3603 17.829 14.5511 17.75 14.75 17.75H31.25C31.4489 17.75 31.6397 17.829 31.7803 17.9697C31.921 18.1103 32 18.3011 32 18.5V27.5Z" fill="#2D66EE"/>
</svg>
