<svg width="20" height="20" viewBox="0 0 20 20" fill="none" xmlns="http://www.w3.org/2000/svg">
<path d="M5.25 13.75H6.25C6.66421 13.75 7 14.0858 7 14.5V15.5C7 15.9142 6.66421 16.25 6.25 16.25H5.25C4.83579 16.25 4.5 15.9142 4.5 15.5V14.5C4.5 14.0858 4.83579 13.75 5.25 13.75Z" fill="#2D66EE"/>
<path d="M13.75 13.75H14.75C15.1642 13.75 15.5 14.0858 15.5 14.5V15.5C15.5 15.9142 15.1642 16.25 14.75 16.25H13.75C13.3358 16.25 13 15.9142 13 15.5V14.5C13 14.0858 13.3358 13.75 13.75 13.75Z" fill="#2D66EE"/>
<path d="M5.25 8.75H6.25C6.66421 8.75 7 9.08579 7 9.5V10.5C7 10.9142 6.66421 11.25 6.25 11.25H5.25C4.83579 11.25 4.5 10.9142 4.5 10.5V9.5C4.5 9.08579 4.83579 8.75 5.25 8.75Z" fill="#2D66EE"/>
<path d="M13.75 8.75H14.75C15.1642 8.75 15.5 9.08579 15.5 9.5V10.5C15.5 10.9142 15.1642 11.25 14.75 11.25H13.75C13.3358 11.25 13 10.9142 13 10.5V9.5C13 9.08579 13.3358 8.75 13.75 8.75Z" fill="#2D66EE"/>
<path d="M5.25 3.75H6.25C6.66421 3.75 7 4.08579 7 4.5V5.5C7 5.91421 6.66421 6.25 6.25 6.25H5.25C4.83579 6.25 4.5 5.91421 4.5 5.5V4.5C4.5 4.08579 4.83579 3.75 5.25 3.75Z" fill="#2D66EE"/>
<path d="M13.75 3.75H14.75C15.1642 3.75 15.5 4.08579 15.5 4.5V5.5C15.5 5.91421 15.1642 6.25 14.75 6.25H13.75C13.3358 6.25 13 5.91421 13 5.5V4.5C13 4.08579 13.3358 3.75 13.75 3.75Z" fill="#2D66EE"/>
<path fill-rule="evenodd" clip-rule="evenodd" d="M7.46131 0.0999758H12.5387C13.556 0.0999676 14.3742 0.0999609 15.0363 0.154056C15.7173 0.209694 16.312 0.327013 16.8611 0.606796C17.736 1.05261 18.4474 1.76397 18.8932 2.63892C19.173 3.18803 19.2903 3.78272 19.3459 4.46369C19.4 5.12579 19.4 5.944 19.4 6.96128V13.0387C19.4 14.0559 19.4 14.8742 19.3459 15.5363C19.2903 16.2172 19.173 16.8119 18.8932 17.361C18.4474 18.236 17.736 18.9473 16.8611 19.3932C16.312 19.6729 15.7173 19.7903 15.0363 19.8459C14.3742 19.9 13.556 19.9 12.5387 19.9H7.46131C6.44404 19.9 5.62582 19.9 4.96373 19.8459C4.28275 19.7903 3.68806 19.6729 3.13895 19.3932C2.264 18.9473 1.55264 18.236 1.10683 17.361C0.827043 16.8119 0.709725 16.2172 0.654087 15.5363C0.599991 14.8742 0.599998 14.0559 0.600006 13.0387V6.96127C0.599998 5.944 0.599991 5.12579 0.654087 4.46369C0.709725 3.78272 0.827043 3.18803 1.10683 2.63892C1.55264 1.76397 2.264 1.05261 3.13895 0.606796C3.68806 0.327013 4.28275 0.209694 4.96373 0.154056C5.62582 0.099961 6.44404 0.0999676 7.46131 0.0999758ZM5.1103 1.94808C4.54064 1.99462 4.2092 2.08167 3.95613 2.21061C3.41987 2.48385 2.98388 2.91984 2.71064 3.4561C2.5817 3.70917 2.49465 4.04061 2.44811 4.61027C2.40071 5.19044 2.40001 5.93503 2.40001 6.99998V13C2.40001 14.0649 2.40071 14.8095 2.44811 15.3897C2.49465 15.9593 2.5817 16.2908 2.71064 16.5438C2.98388 17.0801 3.41987 17.5161 3.95613 17.7893C4.2092 17.9183 4.54064 18.0053 5.1103 18.0519C5.69047 18.0993 6.43506 18.1 7.50001 18.1H12.5C13.565 18.1 14.3095 18.0993 14.8897 18.0519C15.4594 18.0053 15.7908 17.9183 16.0439 17.7893C16.5801 17.5161 17.0161 17.0801 17.2894 16.5438C17.4183 16.2908 17.5054 15.9593 17.5519 15.3897C17.5993 14.8095 17.6 14.0649 17.6 13V6.99998C17.6 5.93503 17.5993 5.19044 17.5519 4.61027C17.5054 4.04061 17.4183 3.70917 17.2894 3.4561C17.0161 2.91984 16.5801 2.48385 16.0439 2.21061C15.7908 2.08167 15.4594 1.99462 14.8897 1.94808C14.3095 1.90068 13.565 1.89998 12.5 1.89998H7.50001C6.43506 1.89998 5.69047 1.90068 5.1103 1.94808Z" fill="#2D66EE"/>
</svg>
