<svg viewBox="0 0 245 48" fill="none" xmlns="http://www.w3.org/2000/svg">
<path d="M22.506 6.77637L5.20953 24.0729L22.506 41.3694L39.8025 24.0729L22.506 6.77637Z" stroke="#7C48BF" stroke-width="7.13258"/>
<path d="M65.2446 10.5396H70.3444V33.6848H84.7023V38H65.2446V10.5396ZM113.247 33.724V38H92.6514V10.5396H112.698V14.8156H97.7512V21.9553H111.011V26.1528H97.7512V33.724H113.247ZM141.491 23.956H146.317V34.9009C144.904 36.0255 143.257 36.8885 141.374 37.49C139.491 38.0915 137.555 38.3923 135.568 38.3923C132.769 38.3923 130.246 37.7908 127.997 36.5877C125.747 35.3586 123.982 33.6717 122.701 31.5272C121.419 29.3827 120.778 26.9635 120.778 24.2698C120.778 21.5761 121.419 19.1569 122.701 17.0124C123.982 14.8679 125.747 13.1941 127.997 11.9911C130.272 10.7619 132.822 10.1473 135.646 10.1473C137.948 10.1473 140.04 10.5265 141.923 11.2849C143.806 12.0434 145.388 13.1549 146.67 14.6194L143.453 17.7577C141.361 15.6655 138.837 14.6194 135.882 14.6194C133.946 14.6194 132.22 15.0248 130.703 15.8355C129.213 16.6463 128.036 17.7839 127.173 19.2485C126.336 20.713 125.917 22.3868 125.917 24.2698C125.917 26.1005 126.336 27.7481 127.173 29.2127C128.036 30.6772 129.213 31.8279 130.703 32.6648C132.22 33.5017 133.933 33.9202 135.842 33.9202C137.987 33.9202 139.87 33.4494 141.491 32.5079V23.956ZM174.776 31.6449H161.046L158.339 38H153.082L165.439 10.5396H170.461L182.857 38H177.522L174.776 31.6449ZM173.089 27.6435L167.911 15.6394L162.772 27.6435H173.089ZM202.599 38.3923C199.827 38.3923 197.317 37.7908 195.067 36.5877C192.844 35.3586 191.092 33.6717 189.811 31.5272C188.555 29.3827 187.928 26.9635 187.928 24.2698C187.928 21.5761 188.568 19.1569 189.85 17.0124C191.131 14.8679 192.884 13.1941 195.107 11.9911C197.356 10.7619 199.866 10.1473 202.639 10.1473C204.888 10.1473 206.941 10.5396 208.798 11.3242C210.654 12.1087 212.224 13.2464 213.505 14.7371L210.21 17.8362C208.222 15.6917 205.777 14.6194 202.874 14.6194C200.991 14.6194 199.304 15.0379 197.813 15.8747C196.323 16.6855 195.159 17.8231 194.322 19.2877C193.485 20.7522 193.067 22.4129 193.067 24.2698C193.067 26.1266 193.485 27.7873 194.322 29.2519C195.159 30.7165 196.323 31.8672 197.813 32.7041C199.304 33.5148 200.991 33.9202 202.874 33.9202C205.777 33.9202 208.222 32.8348 210.21 30.6641L213.505 33.8025C212.224 35.2932 210.641 36.4308 208.758 37.2154C206.902 38 204.849 38.3923 202.599 38.3923ZM233.779 28.3104V38H228.679V28.3889L217.891 10.5396H223.344L231.386 23.9167L239.506 10.5396H244.527L233.779 28.3104Z" fill="#202020"/>
</svg>
